<?xml version="1.0" encoding="utf-8"?>
<!-- Generator: Adobe Illustrator 24.2.3, SVG Export Plug-In . SVG Version: 6.00 Build 0)  -->
<svg version="1.1" id="Layer_1" xmlns="http://www.w3.org/2000/svg" xmlns:xlink="http://www.w3.org/1999/xlink" x="0px" y="0px"
	 viewBox="0 0 712.9 288" style="enable-background:new 0 0 712.9 288;" xml:space="preserve">
<style type="text/css">
	.st0{fill:#272626;}
	.st1{fill:#46A848;}
	.st2{fill:#792C1C;}
	.st3{fill:#FECD99;}
	.st4{fill:#FEDC44;}
	.st5{fill:none;stroke:#000000;stroke-width:0.5;stroke-linecap:round;stroke-linejoin:round;}
	.st6{fill:#E81E25;}
</style>
<g>
	<path class="st0" d="M59,217.5c1.8,0,2.7,0.9,2.7,2.7v10.1c0,1.7-0.9,2.7-2.7,2.7H37.1c-1.7,0-2.7,0.9-2.7,2.7v2.9
		c0,1.7,1,2.7,2.7,2.7h14c1.8,0,2.7,0.9,2.7,2.7v10.1c0,1.7-0.9,2.7-2.7,2.7h-14c-1.7,0-2.7,0.9-2.7,2.7v2.9c0,1.7,1,2.7,2.7,2.7H59
		c1.8,0,2.7,0.9,2.7,2.7v10.1c0,1.8-0.9,2.7-2.7,2.7H21c-1.7,0-2.7-1-2.7-2.7v-57.9c0-1.8,1-2.7,2.7-2.7H59z"/>
	<path class="st0" d="M112.5,277.7c0,2-0.9,3.1-2.7,3.1H99.7c-1.7,0-2.7-0.9-2.7-2.7v-7.9c0-1.8-0.9-2.7-2.7-2.7h-7.8
		c-1.7,0-2.7,0.9-2.7,2.7v7.9c0,1.8-0.9,2.7-2.7,2.7H70.9c-1.7,0-2.7-1.1-2.7-3.1v-38.3c0-11.4,1.8-23.5,22.1-23.5
		s22.2,12.1,22.2,23.5V277.7z M96.9,239.4c0-4.3-0.6-6.5-6.6-6.5c-6,0-6.6,2.2-6.6,6.5v9.9c0,1.7,1,2.7,2.7,2.7h7.8
		c1.8-0.1,2.7-1,2.7-2.8V239.4z"/>
	<path class="st0" d="M133.7,235.8c0-1.8-0.9-2.7-2.7-2.7h-12.7c-1.7,0-2.7-1-2.7-2.7v-10.1c0-1.8,1-2.7,2.7-2.7h46.3
		c1.8,0,2.7,0.9,2.7,2.7v10.1c0,1.7-0.9,2.7-2.7,2.7H152c-1.7,0-2.7,0.9-2.7,2.7v42.3c0,1.7-0.9,2.7-2.7,2.7h-10.1
		c-1.7,0-2.7-1-2.7-2.7V235.8z"/>
	<path class="st0" d="M176.5,245.5c0-1.8,1-2.7,2.7-2.7h32.4c1.8,0,2.7,0.9,2.7,2.7v10.1c0,1.7-0.9,2.7-2.7,2.7h-32.4
		c-1.7,0-2.7-1-2.7-2.7V245.5z"/>
	<path class="st0" d="M249.9,217.5c17,0,22.6,6.9,22.6,21.7V259c0,14.8-5.6,21.8-22.6,21.8h-20.2c-1.7,0-2.7-1-2.7-2.7v-57.8
		c0-1.8,0.9-2.7,2.7-2.8H249.9z M250.2,265.3c4.3,0,6.5-0.7,6.5-6.1c0-0.1,0-19.8,0-19.9c0-5.6-2.2-6.1-6.5-6.1h-4.9
		c-1.7,0-2.7,0.9-2.7,2.7v26.8c0,1.7,1,2.7,2.7,2.7H250.2z"/>
	<path class="st0" d="M324.5,277.7c0,2-0.9,3.1-2.7,3.1h-10.1c-1.7,0-2.7-0.9-2.7-2.7v-7.9c0-1.8-0.9-2.7-2.7-2.7h-7.8
		c-1.7,0-2.7,0.9-2.7,2.7v7.9c0,1.8-0.9,2.7-2.7,2.7h-10.1c-1.7,0-2.7-1.1-2.7-3.1v-38.3c0-11.4,1.8-23.5,22.2-23.5
		c20.3,0,22.1,12.1,22.1,23.5V277.7z M308.9,239.4c0-4.3-0.6-6.5-6.6-6.5s-6.6,2.2-6.6,6.5v9.9c0,1.7,1,2.7,2.7,2.7h7.8
		c1.8-0.1,2.7-1,2.7-2.8V239.4z"/>
	<path class="st0" d="M336.8,245.5c0-1.8,1-2.7,2.7-2.7h32.4c1.8,0,2.7,0.9,2.7,2.7v10.1c0,1.7-0.9,2.7-2.7,2.7h-32.4
		c-1.7,0-2.7-1-2.7-2.7V245.5z"/>
	<path class="st0" d="M409,217.5c17,0,23.5,6.9,23.5,21.7c0,3.1-0.9,9-4.6,13.1c3.7,1.7,6.4,6.2,6.4,11.8c0,11.2-5,16.6-22,16.6H390
		c-1.7,0-2.7-1-2.7-2.7v-57.8c0-1.8,0.9-2.7,2.7-2.8H409z M411.2,268c4.3,0,6.5-0.5,6.5-4.7s-2-4.9-6.3-4.9h-5.9
		c-1.7,0-2.7,0.9-2.7,2.7v4.2c0,1.8,1,2.7,2.7,2.7H411.2z M410.5,245.4c4.3,0,6.5-0.5,6.5-6.1s-2.2-6.1-6.5-6.1h-4.9
		c-1.7,0-2.7,0.9-2.7,2.7v6.9c0,1.8,1,2.7,2.7,2.7H410.5z"/>
	<path class="st0" d="M452.6,217.5c1.8,0,2.7,0.9,2.7,2.7v35.4c0,7,0.5,11.2,7.1,11.2c6.7,0,7.1-4.2,7.1-11.2v-35.4
		c0-1.8,1-2.7,2.7-2.7h10.1c1.8,0,2.7,0.9,2.7,2.7v40.2c0,6-1.3,22-22.7,22s-22.7-16-22.7-22v-40.2c0-1.8,1-2.7,2.7-2.7H452.6z"/>
	<path class="st0" d="M541.3,275.9c1.3,2.4-0.2,4.9-3,4.9H528c-0.9,0-1.7-0.5-2.1-1.3l-9.4-18.2c-0.2-0.3-0.5-0.5-0.7-0.5h-3.6
		c-1.6,0-2.8,1.2-2.8,2.8V278c0,1.6-1.2,2.8-2.8,2.8h-10.1c-1.6,0-2.8-1.2-2.8-2.8v-57.7c0-1.6,1.2-2.8,2.8-2.8h19.8
		c16.1,0,22.6,6.9,22.6,21.7c0,8.4-2.1,14.3-6.9,17.7c-0.4,0.3-0.5,0.7-0.3,1.2L541.3,275.9z M512.2,233.1c-1.6,0-2.8,1.2-2.8,2.8
		v6.7c0,1.6,1.2,2.8,2.8,2.8h4.6c4.3,0,6.5-0.5,6.5-6.1s-2.2-6.1-6.5-6.1H512.2z"/>
	<path class="st0" d="M546.3,237.9c0-6,1.3-22,22.7-22c19,0,22.2,12.5,22.6,19.5c0.1,1.6-0.7,2.6-2.4,3l-10.2,2.3
		c-1.8,0.4-2.8-0.5-3-2.4c-0.4-4.3-1.9-6.9-7.1-6.9c-6.7,0-7.1,4.2-7.1,11.2v13c0,7,0.5,11.2,7.1,11.2s7.1-4.2,7.1-8.7h-5.2
		c-1.7,0-2.7-1-2.7-2.7v-7.2c0-1.8,1-2.7,2.7-2.7H589c1.8,0,2.7,0.9,2.7,2.7v12.2c0,6-1.3,22-22.7,22s-22.7-16-22.7-22V237.9z"/>
	<path class="st0" d="M640.3,217.5c1.8,0,2.7,0.9,2.7,2.7v10.1c0,1.7-0.9,2.7-2.7,2.7h-21.9c-1.7,0-2.7,0.9-2.7,2.7v2.9
		c0,1.7,1,2.7,2.7,2.7h14c1.8,0,2.7,0.9,2.7,2.7v10.1c0,1.7-0.9,2.7-2.7,2.7h-14c-1.7,0-2.7,0.9-2.7,2.7v2.9c0,1.7,1,2.7,2.7,2.7
		h21.9c1.8,0,2.7,0.9,2.7,2.7v10.1c0,1.8-0.9,2.7-2.7,2.7h-38c-1.7,0-2.7-1-2.7-2.7v-57.9c0-1.8,1-2.7,2.7-2.7H640.3z"/>
	<path class="st0" d="M697.7,275.9c1.3,2.4-0.2,4.9-3,4.9h-10.3c-0.9,0-1.7-0.5-2.1-1.3l-9.4-18.2c-0.2-0.3-0.5-0.5-0.7-0.5h-3.6
		c-1.6,0-2.8,1.2-2.8,2.8V278c0,1.6-1.2,2.8-2.8,2.8h-10.1c-1.6,0-2.8-1.2-2.8-2.8v-57.7c0-1.6,1.2-2.8,2.8-2.8h19.8
		c16.1,0,22.6,6.9,22.6,21.7c0,8.4-2.1,14.3-6.9,17.7c-0.4,0.3-0.5,0.7-0.3,1.2L697.7,275.9z M668.6,233.1c-1.6,0-2.8,1.2-2.8,2.8
		v6.7c0,1.6,1.2,2.8,2.8,2.8h4.6c4.3,0,6.5-0.5,6.5-6.1s-2.2-6.1-6.5-6.1H668.6z"/>
</g>
<g>
	<g>
		<g id="XMLID_1_">
			<g>
				<path class="st0" d="M258,133.8c8,0,14.6,6.5,14.6,14.6s-6.5,14.6-14.6,14.6h-13.5l-103.3,0c-8,0-14.6-6.5-14.6-14.6
					s6.5-14.6,14.6-14.6H258z M267.5,148.4c0-5.3-4.3-9.5-9.5-9.5h-11.4l-15.4,13.2c-0.5,0.4-1.1,0.6-1.6,0.6
					c-0.4,0-0.8-0.1-1.2-0.3l-26.3-13.6h-60.9c-5.3,0-9.5,4.3-9.5,9.5s4.3,9.5,9.5,9.5H258C263.3,157.9,267.5,153.6,267.5,148.4z
					 M229.2,147.1l9.6-8.3h-25.7L229.2,147.1z"/>
				<path class="st0" d="M267.8,111.7c0,1.4-1.1,2.5-2.5,2.5H133.9c1.4,0,2.5-1.1,2.5-2.5c0-0.9,0-1.7,0.1-2.5h126.3
					c-1.6-41.8-44.5-46.4-63.1-46.4c-18.6,0-61.5,4.6-63.2,46.4h-2.6c-1.4,0-2.5,1.1-2.5,2.5c0-33.8,25.5-54,68.2-54
					C242.3,57.8,267.8,77.9,267.8,111.7z"/>
				<path class="st1" d="M265.3,119.1c1.4,0,2.5,1.1,2.5,2.5c0,1.4-1.1,2.5-2.5,2.5c-2.1,0-3,0.7-4.4,1.9c-1.6,1.3-3.7,3-7.6,3
					c-3.9,0-5.9-1.7-7.6-3c-1.4-1.1-2.3-1.9-4.4-1.9s-3,0.7-4.4,1.9c-1.6,1.3-3.7,3-7.6,3c-3.9,0-5.9-1.7-7.6-3
					c-1.4-1.1-2.3-1.9-4.4-1.9s-3,0.7-4.4,1.9c-1.6,1.3-3.7,3-7.6,3c-3.9,0-5.9-1.7-7.6-3c-1.4-1.1-2.3-1.9-4.4-1.9
					c-2.1,0-3,0.7-4.4,1.9c-1.6,1.3-3.7,3-7.6,3c-3.9,0-5.9-1.7-7.6-3c-1.4-1.1-2.3-1.9-4.4-1.9c-2.1,0-3,0.7-4.4,1.9
					c-1.6,1.3-3.7,3-7.6,3s-5.9-1.7-7.6-3c-1.4-1.1-2.3-1.9-4.4-1.9c-2.1,0-3,0.7-4.4,1.9c-1.6,1.3-3.7,3-7.6,3
					c-1.4,0-2.5-1.1-2.5-2.5c0-1.4,1.1-2.5,2.5-2.5c2.1,0,3-0.7,4.4-1.9c1.6-1.3,3.7-3,7.6-3c3.9,0,5.9,1.7,7.6,3
					c1.4,1.1,2.3,1.9,4.4,1.9c2.1,0,3-0.7,4.4-1.9c1.6-1.3,3.7-3,7.6-3c3.9,0,5.9,1.7,7.6,3c1.4,1.1,2.3,1.9,4.4,1.9
					c2.1,0,3-0.7,4.4-1.9c1.6-1.3,3.7-3,7.6-3c3.9,0,5.9,1.7,7.6,3c1.4,1.1,2.3,1.9,4.4,1.9c2.1,0,3-0.7,4.4-1.9
					c1.6-1.3,3.7-3,7.6-3c3.9,0,5.9,1.7,7.6,3c1.4,1.1,2.3,1.9,4.4,1.9c2.1,0,3-0.7,4.4-1.9c1.6-1.3,3.7-3,7.6-3
					c3.9,0,5.9,1.7,7.6,3c1.4,1.1,2.3,1.9,4.4,1.9c2.1,0,3-0.7,4.4-1.9C259.4,120.7,261.4,119.1,265.3,119.1z"/>
				<path d="M267.1,170.1c0.5,0.5,0.7,1.1,0.7,1.8c0,1.4-1.1,2.5-2.5,2.5h-2.7c0.1-0.8,0.2-1.7,0.2-2.5c0-1.4,1.1-2.5,2.5-2.5
					C266,169.3,266.6,169.6,267.1,170.1z"/>
				<path class="st0" d="M265.3,174.4c1.4,0,2.5-1.1,2.5-2.5c0,12.4-10.1,22.4-22.4,22.4c-5.6,0-47.7,0-73.1,0h-18.6
					c-12.4,0-22.4-10.1-22.4-22.4c0-1.4,1.1-2.5,2.5-2.5l131.4,0c-1.4,0-2.5,1.1-2.5,2.5c0,0.9-0.1,1.7-0.2,2.5h-126
					c1.2,8.4,8.5,14.9,17.2,14.9h18.6c25.4,0,67.5,0,73.1,0c8.7,0,16-6.5,17.2-14.9H265.3z"/>
				<path class="st2" d="M258,138.8c5.3,0,9.5,4.3,9.5,9.5s-4.3,9.5-9.5,9.5H141.2c-5.3,0-9.5-4.3-9.5-9.5s4.3-9.5,9.5-9.5h60.9
					l26.3,13.6c0.4,0.2,0.8,0.3,1.2,0.3c0.6,0,1.2-0.2,1.6-0.6l15.4-13.2H258z"/>
				<path class="st3" d="M262.7,109.2H136.4c1.7-41.8,44.5-46.4,63.2-46.4C218.2,62.8,261.1,67.4,262.7,109.2z M240.2,89.4
					c1.1-1.1,1.1-2.9,0-4c-1.1-1.1-3-1.1-4,0c-0.5,0.5-0.8,1.3-0.8,2c0,0.8,0.3,1.5,0.8,2c0.5,0.5,1.2,0.8,2,0.8
					C238.9,90.2,239.7,89.9,240.2,89.4z M228.2,100c0-0.8-0.3-1.5-0.8-2c-1-1.1-2.9-1.1-4,0c-0.5,0.5-0.8,1.3-0.8,2
					c0,0.8,0.3,1.5,0.9,2c0.5,0.5,1.2,0.8,2,0.8c0.8,0,1.5-0.3,2-0.8C227.8,101.5,228.2,100.8,228.2,100z M228.2,74.9
					c0-0.8-0.3-1.5-0.8-2c-1-1.1-2.9-1.1-4,0c-1.1,1.1-1.1,2.9,0,4c0.5,0.5,1.2,0.8,2,0.8c0.8,0,1.5-0.3,2-0.8
					C227.8,76.3,228.2,75.6,228.2,74.9z M215.3,87.4c0-0.8-0.3-1.5-0.8-2c-1-1.1-2.9-1.1-4,0c-0.5,0.5-0.8,1.3-0.8,2
					c0,0.8,0.3,1.5,0.9,2c0.5,0.5,1.2,0.8,2,0.8c0.8,0,1.5-0.3,2-0.8C215,88.9,215.3,88.2,215.3,87.4z M202.4,74.8
					c0-0.8-0.3-1.5-0.8-2c-1-1.1-2.9-1.1-4,0c-1.1,1.1-1.1,2.9,0,4c0.5,0.5,1.2,0.8,2,0.8c0.8,0,1.5-0.3,2-0.8
					C202.1,76.3,202.4,75.6,202.4,74.8z M202.4,100c0-0.8-0.3-1.5-0.8-2c-1-1.1-2.9-1.1-4,0c-0.5,0.5-0.8,1.3-0.8,2
					c0,0.8,0.3,1.5,0.9,2c0.5,0.5,1.2,0.8,2,0.8c0.8,0,1.5-0.3,2-0.8C202.1,101.5,202.4,100.7,202.4,100z M188.7,89.4
					c1.1-1.1,1.1-2.9,0-4c-1.1-1.1-2.9-1.1-4,0c-0.5,0.5-0.8,1.3-0.8,2c0,0.8,0.3,1.5,0.8,2c0.5,0.5,1.2,0.8,2,0.8
					S188.2,89.9,188.7,89.4z M175.9,76.8c1.1-1.1,1.1-2.9,0-4c-1.1-1.1-3-1.1-4,0c-1.1,1.1-1.1,2.9,0,4c0.5,0.5,1.2,0.8,2,0.8
					C174.6,77.7,175.4,77.4,175.9,76.8z M175.9,102c1.1-1.1,1.1-2.9,0-4c-1.1-1.1-3-1.1-4,0c-0.5,0.5-0.8,1.3-0.8,2
					c0,0.8,0.3,1.5,0.8,2c0.5,0.5,1.2,0.8,2,0.8C174.6,102.8,175.4,102.5,175.9,102z M163,89.4c1.1-1.1,1.1-2.9,0-4
					c-1.1-1.1-3-1.1-4,0c-0.5,0.5-0.8,1.3-0.8,2c0,0.8,0.3,1.5,0.8,2c0.5,0.5,1.2,0.8,2,0.8C161.8,90.2,162.5,89.9,163,89.4z"/>
				<path class="st3" d="M136.6,174.4h126c-1.2,8.4-8.5,14.9-17.2,14.9c-5.6,0-47.7,0-73.1,0h-18.6
					C145,189.2,137.8,182.8,136.6,174.4z"/>
				<path class="st0" d="M240.2,85.4c1.1,1.1,1.1,2.9,0,4c-0.5,0.5-1.2,0.8-2,0.8c-0.8,0-1.5-0.3-2-0.8c-0.5-0.5-0.8-1.2-0.8-2
					c0-0.8,0.3-1.5,0.8-2C237.2,84.3,239.1,84.3,240.2,85.4z"/>
				<polygon class="st4" points="238.9,138.8 229.2,147.1 213.1,138.8 				"/>
				<path class="st0" d="M227.4,98c0.5,0.5,0.8,1.2,0.8,2c0,0.8-0.3,1.5-0.9,2c-0.5,0.5-1.2,0.8-2,0.8c-0.7,0-1.4-0.3-2-0.8
					c-0.6-0.5-0.9-1.3-0.9-2c0-0.8,0.3-1.5,0.8-2C224.4,96.9,226.3,96.9,227.4,98z"/>
				<path class="st0" d="M227.4,72.9c0.5,0.5,0.8,1.2,0.8,2c0,0.8-0.3,1.5-0.9,2c-0.5,0.5-1.2,0.8-2,0.8c-0.7,0-1.4-0.3-2-0.8
					c-1.1-1.1-1.1-2.9,0-4C224.4,71.7,226.3,71.8,227.4,72.9z"/>
				<path class="st0" d="M214.5,85.4c0.5,0.5,0.8,1.2,0.8,2c0,0.8-0.3,1.5-0.9,2c-0.5,0.5-1.2,0.8-2,0.8c-0.7,0-1.5-0.3-2-0.8
					c-0.6-0.6-0.9-1.3-0.9-2c0-0.8,0.3-1.5,0.8-2C211.6,84.3,213.4,84.3,214.5,85.4z"/>
				<path class="st0" d="M201.6,72.9c0.5,0.5,0.8,1.2,0.8,2c0,0.8-0.3,1.5-0.9,2c-0.5,0.5-1.2,0.8-2,0.8c-0.7,0-1.5-0.3-2-0.8
					c-1.1-1.1-1.1-2.9,0-4C198.7,71.7,200.6,71.8,201.6,72.9z"/>
				<path class="st0" d="M201.6,98c0.5,0.5,0.8,1.2,0.8,2s-0.3,1.5-0.9,2c-0.5,0.5-1.2,0.8-2,0.8c-0.7,0-1.5-0.3-2-0.8
					c-0.6-0.5-0.9-1.3-0.9-2c0-0.8,0.3-1.5,0.8-2C198.7,96.9,200.6,96.9,201.6,98z"/>
				<path class="st0" d="M188.7,85.4c1.1,1.1,1.1,2.9,0,4c-0.5,0.5-1.2,0.8-2,0.8s-1.5-0.3-2-0.8c-0.5-0.5-0.8-1.2-0.8-2
					c0-0.8,0.3-1.5,0.8-2C185.8,84.3,187.7,84.3,188.7,85.4z"/>
				<path class="st0" d="M175.9,72.9c1.1,1.1,1.1,2.9,0,4c-0.5,0.5-1.2,0.8-2,0.8c-0.8,0-1.5-0.3-2-0.8c-1.1-1.1-1.1-2.9,0-4
					C172.9,71.7,174.8,71.8,175.9,72.9z"/>
				<path class="st0" d="M175.9,98c1.1,1.1,1.1,2.9,0,4c-0.5,0.5-1.2,0.8-2,0.8c-0.8,0-1.5-0.3-2-0.8c-0.5-0.5-0.8-1.2-0.8-2
					c0-0.8,0.3-1.5,0.8-2C172.9,96.9,174.8,96.9,175.9,98z"/>
				<path class="st0" d="M163.1,85.4c1.1,1.1,1.1,2.9,0,4c-0.5,0.5-1.2,0.8-2,0.8c-0.8,0-1.5-0.3-2-0.8c-0.5-0.5-0.8-1.2-0.8-2
					c0-0.8,0.3-1.5,0.8-2C160.1,84.3,162,84.3,163.1,85.4z"/>
				<path d="M133.9,109.2h2.6c0,0.8-0.1,1.7-0.1,2.5c0,1.4-1.1,2.5-2.5,2.5c-0.7,0-1.3-0.3-1.8-0.7c-0.5-0.5-0.7-1.1-0.7-1.8
					C131.3,110.3,132.5,109.2,133.9,109.2z"/>
			</g>
			<g>
				<path class="st5" d="M258,133.8H141.2c-8,0-14.6,6.5-14.6,14.6s6.5,14.6,14.6,14.6l103.3,0H258c8,0,14.6-6.5,14.6-14.6
					S266,133.8,258,133.8z"/>
				<polygon class="st5" points="238.9,138.8 229.2,147.1 213.1,138.8 				"/>
				<path class="st5" d="M258,157.9H141.2c-5.3,0-9.5-4.3-9.5-9.5s4.3-9.5,9.5-9.5h60.9l26.3,13.6c0.4,0.2,0.8,0.3,1.2,0.3
					c0.6,0,1.2-0.2,1.6-0.6l15.4-13.2H258c5.3,0,9.5,4.3,9.5,9.5S263.3,157.9,258,157.9z"/>
			</g>
		</g>
	</g>
	<g>
		<g id="XMLID_6_">
			<g>
				<path class="st0" d="M432.9,161.8c1.4,0,2.6,1.2,2.6,2.6c0,7.9-2.6,15.4-7.4,21c-2.4,2.8-5.1,5-8.2,6.5
					c-3.2,1.6-6.6,2.4-10.2,2.4h-92.4c-3.5,0-7-0.8-10.2-2.4c-3.1-1.5-5.8-3.7-8.2-6.5c-4.8-5.6-7.4-13.1-7.4-21
					c0-1.4,1.2-2.6,2.6-2.6H432.9z M430.2,167H296.8c1.1,12.4,9.9,22.1,20.5,22.1h92.4C420.4,189.1,429.1,179.4,430.2,167z"/>
				<path class="st3" d="M296.8,167h133.4c-1.1,12.4-9.9,22.1-20.5,22.1h-92.4C306.7,189.1,297.9,179.4,296.8,167z"/>
			</g>
			<g>
			</g>
		</g>
		<g id="XMLID_5_">
			<g>
				<path class="st0" d="M435.5,68.9c0,1.4-1.2,2.6-2.6,2.6H294.1c-0.7,0-1.3-0.3-1.8-0.8c-0.5-0.5-0.8-1.2-0.8-1.8
					c0-8.4,1.9-16.4,5.7-24.1c3.7-7.3,8.9-13.9,15.5-19.5c6.6-5.6,14.3-10,22.9-13.1c4.4-1.6,9-2.8,13.6-3.6
					c4.7-0.8,9.4-1.2,14.3-1.2c9.7,0,19,1.6,27.9,4.8c8.6,3.1,16.2,7.5,22.9,13.1c6.6,5.6,11.9,12.2,15.5,19.5
					C433.6,52.5,435.5,60.6,435.5,68.9z M296.8,66.3h133.4c-1.6-29.8-30.9-53.6-66.7-53.6C327.7,12.7,298.4,36.5,296.8,66.3z"/>
				<path class="st3" d="M430.2,66.3H296.8c1.6-29.8,30.9-53.6,66.7-53.6C399.3,12.7,428.6,36.5,430.2,66.3z"/>
			</g>
			<g>
			</g>
		</g>
		<g id="XMLID_4_">
			<g>
				<path class="st0" d="M426,103.5c5.3,0,9.6,4.3,9.6,9.6c0,5.3-4.3,9.6-9.6,9.6H301c-5.3,0-9.6-4.3-9.6-9.6c0-5.3,4.3-9.6,9.6-9.6
					H426z M430.4,113.1c0-2.4-2-4.4-4.4-4.4H301c-2.4,0-4.4,2-4.4,4.4c0,2.4,2,4.4,4.4,4.4h125C428.4,117.5,430.4,115.5,430.4,113.1
					z"/>
				<path class="st6" d="M426,108.7c2.4,0,4.4,2,4.4,4.4c0,2.4-2,4.4-4.4,4.4H301c-2.4,0-4.4-2-4.4-4.4c0-2.4,2-4.4,4.4-4.4H426z"/>
			</g>
			<g>
			</g>
		</g>
		<path class="st1" d="M294.1,96.7c1.4,0,2.6-1.2,2.6-2.6v-7.7c0-2.8,2.3-5.1,5.1-5.1c1.4,0,2.6,0.5,3.6,1.5c1,1,1.5,2.2,1.5,3.6
			c0,2.8,1.1,5.3,3,7.3c1.9,1.9,4.5,3,7.3,3c5.7,0,10.3-4.6,10.3-10.3c0-2.8,2.3-5.1,5.1-5.1c1.4,0,2.6,0.5,3.6,1.5
			c1,1,1.5,2.2,1.5,3.6c0,2.8,1.1,5.3,3,7.3c1.9,1.9,4.5,3,7.3,3c5.7,0,10.3-4.6,10.3-10.3c0-2.8,2.3-5.1,5.1-5.1
			c1.4,0,2.6,0.5,3.6,1.5c1,1,1.5,2.2,1.5,3.6c0,2.8,1.1,5.3,3,7.3c1.9,1.9,4.5,3,7.3,3c5.7,0,10.3-4.6,10.3-10.3
			c0-2.8,2.3-5.1,5.1-5.1c1.4,0,2.6,0.5,3.6,1.5c1,1,1.5,2.2,1.5,3.6c0,2.8,1.1,5.3,3,7.3c1.9,1.9,4.5,3,7.3,3
			c5.7,0,10.3-4.6,10.3-10.3c0-2.8,2.3-5.1,5.1-5.1c1.4,0,2.6,0.5,3.6,1.5c1,1,1.5,2.2,1.5,3.6v7.7c0,1.4,1.2,2.6,2.6,2.6
			s2.6-1.2,2.6-2.6v-7.7c0-2.8-1.1-5.3-3-7.3c-1.9-1.9-4.5-3-7.3-3c-5.7,0-10.3,4.6-10.3,10.3c0,2.8-2.3,5.1-5.1,5.1
			c-1.4,0-2.6-0.5-3.6-1.5c-1-1-1.5-2.2-1.5-3.6c0-2.8-1.1-5.3-3-7.3c-1.9-1.9-4.5-3-7.3-3c-5.7,0-10.3,4.6-10.3,10.3
			c0,2.8-2.3,5.1-5.1,5.1c-1.4,0-2.6-0.5-3.6-1.5c-1-1-1.5-2.2-1.5-3.6c0-2.8-1.1-5.3-3-7.3c-1.9-1.9-4.5-3-7.3-3
			c-5.7,0-10.3,4.6-10.3,10.3c0,2.8-2.3,5.1-5.1,5.1c-1.4,0-2.6-0.5-3.6-1.5c-1-1-1.5-2.2-1.5-3.6c0-2.8-1.1-5.3-3-7.3
			c-1.9-1.9-4.5-3-7.3-3c-5.7,0-10.3,4.6-10.3,10.3c0,2.8-2.3,5.1-5.1,5.1c-1.4,0-2.6-0.5-3.6-1.5c-1-1-1.5-2.2-1.5-3.6
			c0-2.8-1.1-5.3-3-7.3c-1.9-1.9-4.5-3-7.3-3c-5.7,0-10.3,4.6-10.3,10.3v7.7C291.5,95.6,292.7,96.7,294.1,96.7z"/>
		<circle class="st0" cx="321.7" cy="44.4" r="2.7"/>
		<circle class="st0" cx="348.9" cy="44.4" r="2.7"/>
		<circle class="st0" cx="363.5" cy="35.8" r="2.7"/>
		<circle class="st0" cx="379.9" cy="43.7" r="2.7"/>
		<ellipse transform="matrix(0.9871 -0.1602 0.1602 0.9871 0.2164 62.7221)" class="st0" cx="389.1" cy="30" rx="2.7" ry="2.7"/>
		<circle class="st0" cx="336.9" cy="58.4" r="2.7"/>
		<circle class="st0" cx="363.5" cy="58.4" r="2.7"/>
		<ellipse transform="matrix(0.9871 -0.1602 0.1602 0.9871 -4.3352 63.089)" class="st0" cx="389.1" cy="58.4" rx="2.7" ry="2.7"/>
		<circle class="st0" cx="363.5" cy="19.9" r="2.7"/>
		<circle class="st0" cx="402.4" cy="41.6" r="2.7"/>
		<circle class="st0" cx="336.9" cy="31.8" r="2.7"/>
		<g>
			<g id="XMLID_3_">
				<g>
					<path class="st0" d="M421,127.7c8,0,14.6,6.5,14.6,14.6s-6.5,14.6-14.6,14.6h-13.5l-103.3,0c-8,0-14.6-6.5-14.6-14.6
						s6.5-14.6,14.6-14.6H421z M430.6,142.2c0-5.3-4.3-9.5-9.5-9.5h-11.4l-15.4,13.2c-0.5,0.4-1.1,0.6-1.6,0.6
						c-0.4,0-0.8-0.1-1.2-0.3l-26.3-13.6h-60.9c-5.3,0-9.5,4.3-9.5,9.5s4.3,9.5,9.5,9.5H421C426.3,151.8,430.6,147.5,430.6,142.2z
						 M392.3,141l9.6-8.3h-25.8L392.3,141z"/>
					<path class="st2" d="M421,132.7c5.3,0,9.5,4.3,9.5,9.5s-4.3,9.5-9.5,9.5H304.2c-5.3,0-9.5-4.3-9.5-9.5s4.3-9.5,9.5-9.5h60.9
						l26.3,13.6c0.4,0.2,0.8,0.3,1.2,0.3c0.6,0,1.2-0.2,1.6-0.6l15.4-13.2H421z"/>
					<polygon class="st4" points="401.9,132.7 392.3,141 376.1,132.7 					"/>
				</g>
				<g>
					<path class="st5" d="M421,127.7H304.2c-8,0-14.6,6.5-14.6,14.6s6.5,14.6,14.6,14.6l103.3,0H421c8,0,14.6-6.5,14.6-14.6
						S429.1,127.7,421,127.7z"/>
					<polygon class="st5" points="401.9,132.7 392.3,141 376.1,132.7 					"/>
					<path class="st5" d="M421,151.8H304.2c-5.3,0-9.5-4.3-9.5-9.5s4.3-9.5,9.5-9.5h60.9l26.3,13.6c0.4,0.2,0.8,0.3,1.2,0.3
						c0.6,0,1.2-0.2,1.6-0.6l15.4-13.2H421c5.3,0,9.5,4.3,9.5,9.5S426.3,151.8,421,151.8z"/>
				</g>
			</g>
		</g>
	</g>
	<g>
		<g>
			<g id="XMLID_2_">
				<g>
					<path class="st6" d="M584.1,156.9c0.9,1.1,0.8,2.7-0.3,3.7c-0.5,0.4-1.1,0.6-1.7,0.6c-0.7,0-1.5-0.3-2-0.9
						c-2.6-3-6.3-4.7-10.2-4.7c-3.9,0-7.6,1.7-10.2,4.7c0,0,0,0,0,0c-3.5,4.1-8.7,6.5-14.1,6.5c-5.4,0-10.6-2.4-14.1-6.5
						c0,0,0,0,0,0c-2.6-3-6.3-4.7-10.2-4.7c-3.9,0-7.6,1.7-10.2,4.7c-3.5,4.1-8.7,6.5-14.1,6.5c-5.4,0-10.6-2.4-14.1-6.5
						c0,0,0,0,0,0c-2.6-3-6.3-4.7-10.2-4.7c-3.9,0-7.6,1.7-10.2,4.7c-0.5,0.6-1.2,0.9-2,0.9c-0.6,0-1.2-0.2-1.7-0.6
						c-1.1-0.9-1.2-2.6-0.3-3.7c3.5-4.1,8.7-6.5,14.1-6.5c5.4,0,10.6,2.4,14.1,6.5c0,0,0,0,0,0c2.6,3,6.3,4.7,10.2,4.7
						c3.9,0,7.6-1.7,10.2-4.7c3.5-4.1,8.7-6.5,14.1-6.5c5.4,0,10.6,2.4,14.1,6.5c0,0,0,0,0,0c2.6,3,6.3,4.7,10.2,4.7
						c3.9,0,7.6-1.7,10.2-4.7c0,0,0,0,0,0c3.5-4.1,8.7-6.5,14.1-6.5C575.4,150.4,580.6,152.8,584.1,156.9z"/>
					<path class="st0" d="M584,169.9v2.6c0,12-9.8,21.8-21.8,21.8h-81.7c-12,0-21.8-9.8-21.8-21.8v-2.6H584z M578.6,175.1H464.1
						c1.2,7.9,8.1,14,16.4,14h81.7C570.5,189.1,577.3,183,578.6,175.1z"/>
					<path class="st0" d="M584,108.3c0,1.7-0.7,3.3-1.8,4.5c-1.2,1.2-2.8,1.9-4.5,1.9H465.1c-3.5,0-6.3-2.8-6.3-6.3v-0.9
						c0.4-14.8,7.1-28.7,18.9-39c11.8-10.3,27.3-16,43.7-16c16.4,0,31.9,5.7,43.7,16c11.8,10.3,18.5,24.2,18.9,39L584,108.3z
						 M578.5,109.2c0.1-0.1,0.3-0.4,0.3-0.8l0-0.8c-0.8-27.5-26.5-49.9-57.4-49.9s-56.7,22.4-57.4,49.9v0.8c0,0.6,0.5,1.1,1.1,1.1
						h112.6C578.1,109.5,578.3,109.3,578.5,109.2z"/>
					<path class="st3" d="M578.8,108.4c0,0.4-0.2,0.7-0.3,0.8c-0.1,0.1-0.4,0.3-0.8,0.3H465.1c-0.6,0-1.1-0.5-1.1-1.1v-0.8
						c0.8-27.5,26.5-49.9,57.4-49.9s56.7,22.4,57.4,49.9L578.8,108.4z M555.5,90.1c0-1.6-1.3-2.9-2.9-2.9c-1.6,0-2.9,1.3-2.9,2.9
						c0,1.6,1.3,2.9,2.9,2.9C554.3,93,555.5,91.7,555.5,90.1z M546.6,77.8c0-1.6-1.3-2.9-2.9-2.9c-1.6,0-2.9,1.3-2.9,2.9
						s1.3,2.9,2.9,2.9C545.3,80.7,546.6,79.4,546.6,77.8z M534.4,90.1c0-1.6-1.3-2.9-2.9-2.9s-2.9,1.3-2.9,2.9
						c0,1.6,1.3,2.9,2.9,2.9S534.4,91.7,534.4,90.1z M525.7,77.8c0-1.6-1.3-2.9-2.9-2.9c-1.6,0-2.9,1.3-2.9,2.9s1.3,2.9,2.9,2.9
						C524.4,80.7,525.7,79.4,525.7,77.8z M514.7,90.1c0-1.6-1.3-2.9-2.9-2.9s-2.9,1.3-2.9,2.9c0,1.6,1.3,2.9,2.9,2.9
						S514.7,91.7,514.7,90.1z M506.9,77.8c0-1.6-1.3-2.9-2.9-2.9s-2.9,1.3-2.9,2.9s1.3,2.9,2.9,2.9S506.9,79.4,506.9,77.8z
						 M492.9,90.1c0-1.6-1.3-2.9-2.9-2.9s-2.9,1.3-2.9,2.9c0,1.6,1.3,2.9,2.9,2.9S492.9,91.7,492.9,90.1z"/>
					<path class="st3" d="M464.1,175.1h114.5c-1.2,7.9-8.1,14-16.4,14h-81.7C472.3,189.1,465.4,183,464.1,175.1z"/>
					<path class="st0" d="M552.7,87.3c1.6,0,2.9,1.3,2.9,2.9c0,1.6-1.3,2.9-2.9,2.9c-1.6,0-2.9-1.3-2.9-2.9
						C549.8,88.6,551.1,87.3,552.7,87.3z"/>
					<path class="st0" d="M543.7,74.9c1.6,0,2.9,1.3,2.9,2.9s-1.3,2.9-2.9,2.9c-1.6,0-2.9-1.3-2.9-2.9S542.2,74.9,543.7,74.9z"/>
					<path class="st0" d="M531.5,87.3c1.6,0,2.9,1.3,2.9,2.9c0,1.6-1.3,2.9-2.9,2.9s-2.9-1.3-2.9-2.9
						C528.6,88.6,529.9,87.3,531.5,87.3z"/>
					<path class="st0" d="M522.8,74.9c1.6,0,2.9,1.3,2.9,2.9s-1.3,2.9-2.9,2.9c-1.6,0-2.9-1.3-2.9-2.9S521.2,74.9,522.8,74.9z"/>
					<path class="st0" d="M511.8,87.3c1.6,0,2.9,1.3,2.9,2.9c0,1.6-1.3,2.9-2.9,2.9s-2.9-1.3-2.9-2.9
						C509,88.6,510.3,87.3,511.8,87.3z"/>
					<circle class="st0" cx="504" cy="77.8" r="2.9"/>
					<path class="st0" d="M490.1,87.3c1.6,0,2.9,1.3,2.9,2.9c0,1.6-1.3,2.9-2.9,2.9s-2.9-1.3-2.9-2.9
						C487.2,88.6,488.5,87.3,490.1,87.3z"/>
				</g>
				<g>
				</g>
			</g>
		</g>
		<g>
			<g id="XMLID_8_">
				<g>
					<path class="st0" d="M573.1,119.6c7.2,0,13.1,5.9,13.1,13.1c0,7.2-5.9,13.1-13.1,13.1H561l-93,0c-7.2,0-13.1-5.9-13.1-13.1
						c0-7.2,5.9-13.1,13.1-13.1H573.1z M581.7,132.7c0-4.7-3.8-8.6-8.6-8.6h-10.3L549.1,136c-0.4,0.4-0.9,0.6-1.5,0.6
						c-0.4,0-0.7-0.1-1-0.3l-23.7-12.2H468c-4.7,0-8.6,3.9-8.6,8.6s3.8,8.6,8.6,8.6h105.2C577.9,141.3,581.7,137.5,581.7,132.7z
						 M547.3,131.6l8.7-7.5h-23.2L547.3,131.6z"/>
					<path class="st2" d="M573.1,124.1c4.7,0,8.6,3.9,8.6,8.6s-3.8,8.6-8.6,8.6H468c-4.7,0-8.6-3.9-8.6-8.6s3.8-8.6,8.6-8.6h54.9
						l23.7,12.2c0.3,0.2,0.7,0.3,1,0.3c0.5,0,1.1-0.2,1.5-0.6l13.8-11.9H573.1z"/>
					<polygon class="st4" points="555.9,124.1 547.3,131.6 532.8,124.1 					"/>
				</g>
				<g>
					<path class="st5" d="M573.1,119.6H468c-7.2,0-13.1,5.9-13.1,13.1c0,7.2,5.9,13.1,13.1,13.1l93,0h12.1c7.2,0,13.1-5.9,13.1-13.1
						C586.3,125.5,580.4,119.6,573.1,119.6z"/>
					<polygon class="st5" points="555.9,124.1 547.3,131.6 532.8,124.1 					"/>
					<path class="st5" d="M573.1,141.3H468c-4.7,0-8.6-3.9-8.6-8.6s3.8-8.6,8.6-8.6h54.9l23.7,12.2c0.3,0.2,0.7,0.3,1,0.3
						c0.5,0,1.1-0.2,1.5-0.6l13.8-11.9h10.3c4.7,0,8.6,3.9,8.6,8.6S577.9,141.3,573.1,141.3z"/>
				</g>
			</g>
		</g>
	</g>
</g>
</svg>
