<?xml version="1.0" encoding="utf-8"?>
<!-- Generator: Adobe Illustrator 24.2.3, SVG Export Plug-In . SVG Version: 6.00 Build 0)  -->
<svg version="1.1" id="Capa_1" xmlns="http://www.w3.org/2000/svg" xmlns:xlink="http://www.w3.org/1999/xlink" x="0px" y="0px"
	 viewBox="0 0 512 512" style="enable-background:new 0 0 512 512;" xml:space="preserve">
<style type="text/css">
	.st0{fill:#FFFFFF;}
</style>
<g>
	<g>
		<path class="st0" d="M383.1,148.9c-3.9-3.9-10.2-3.9-14.1,0l-20,20c-3.9,3.9-3.9,10.2,0,14.1c3.9,3.9,10.2,3.9,14.1,0l20-20
			C387,159.2,387,152.8,383.1,148.9z"/>
	</g>
</g>
<g>
	<g>
		<path class="st0" d="M143.1,148.9c-3.9-3.9-10.2-3.9-14.1,0l-20,20c-3.9,3.9-3.9,10.2,0,14.1c3.9,3.9,10.2,3.9,14.1,0l20-20
			C147,159.2,147,152.8,143.1,148.9z"/>
	</g>
</g>
<g>
	<g>
		<path class="st0" d="M333.1,108.9c-3.9-3.9-10.2-3.9-14.1,0l-20,20c-3.9,3.9-3.9,10.2,0,14.1c3.9,3.9,10.2,3.9,14.1,0l20-20
			C337,119.2,337,112.8,333.1,108.9z"/>
	</g>
</g>
<g>
	<g>
		<path class="st0" d="M213.1,108.9c-3.9-3.9-10.2-3.9-14.1,0l-20,20c-3.9,3.9-3.9,10.2,0,14.1c3.9,3.9,10.2,3.9,14.1,0l20-20
			C217,119.2,217,112.8,213.1,108.9z"/>
	</g>
</g>
<g>
	<g>
		<path class="st0" d="M263.1,148.9c-3.9-3.9-10.2-3.9-14.1,0l-20,20c-3.9,3.9-3.9,10.2,0,14.1c3.9,3.9,10.2,3.9,14.1,0l20-20
			C267,159.2,267,152.8,263.1,148.9z"/>
	</g>
</g>
<g>
	<g>
		<path class="st0" d="M512,356c0-16.5-13.5-30-30-30h-10v-32.2c0.4-0.4,0.8-0.7,1.2-1.1c6.5-5.9,20-9.7,28.9-9.8
			c5.5-0.1,9.9-4.6,9.9-10.1c-0.1-5.5-4.5-9.9-10-9.9c0,0-0.1,0-0.1,0c-8.6,0.1-20,2.4-29.9,7.1v-26.2c12.2-5,20.3-17.5,18.5-31.4
			C478.7,117.5,397.7,46,302,46h-92c-95.7,0-176.7,71.5-188.5,166.3c-1.7,13.9,6.3,26.4,18.5,31.4v25.8c-9.9-4.5-21.4-6.7-30.1-6.6
			C4.3,263-0.1,267.5,0,273c0.1,5.5,4.5,9.9,10,9.9c0,0,0.1,0,0.1,0c8.9-0.1,22.8,3.6,29.6,9.8c0.1,0.1,0.2,0.2,0.3,0.2V326H30
			c-16.6,0-30,13.4-30,30c0,14.9,10.9,27.2,25.1,29.6c-2.3,6.2-2.5,12.9-0.3,19.3C37.1,441.4,71.4,466,110,466h292
			c38.6,0,72.9-24.6,85.3-61.1c2.2-6.4,2-13.1-0.3-19.3C500.9,383.3,512,371.2,512,356z M41.3,214.8C51.9,130,124.4,66,210,66h92
			c85.6,0,158.1,64,168.7,148.8c0.7,5.8-3.8,10.8-9.4,11.2c-0.1,0-0.1,0-0.2,0c-0.2,0-0.3,0-0.5,0H51.4
			C45.5,226,40.6,220.8,41.3,214.8z M413.2,277.9c-22-20-51.5-20-73.5,0c-14.3,13.1-32.2,13.1-46.5,0c-22-20-51.5-20-73.5,0
			c-14.3,13.1-32.2,13.1-46.5,0c-22-20-51.5-20-73.5,0C87.6,289,73,290.8,60,283v-37h392v37.6C439.2,290.7,425,288.7,413.2,277.9z
			 M452,305.2V326H60v-21.1c5.4,1.9,11,2.8,16.5,2.8c12.9,0,25.8-5,36.7-15.1c14.3-13.1,32.2-13.1,46.5,0c22,20,51.5,20,73.5,0
			c14.3-13.1,32.2-13.1,46.5,0c22,20,51.5,20,73.5,0c14.3-13.1,32.2-13.1,46.5,0C415.1,306.6,434.3,310.9,452,305.2z M468.3,398.5
			C458.7,426.9,432,446,402,446H110c-30,0-56.7-19.1-66.3-47.5c-2.1-6.1,3.2-12.5,9.8-12.5h405.1C465.1,386,470.4,392.4,468.3,398.5
			z M482,366H30c-5.5,0-10-4.5-10-10c0-5.5,4.5-10,10-10h452c5.5,0,10,4.5,10,10C492,361.5,487.5,366,482,366z"/>
	</g>
</g>
</svg>
